solid exported
	facet normal 1 0 0
		outer loop
			vertex 5 5.000000000000001 -4.999999999999999
			vertex 5 4.999999999999999 5.000000000000001
			vertex 5 -4.999999999999999 -5.000000000000001
		endloop
	endfacet
	facet normal 1 0 0
		outer loop
			vertex 5 4.999999999999999 5.000000000000001
			vertex 5 -5.000000000000001 4.999999999999999
			vertex 5 -4.999999999999999 -5.000000000000001
		endloop
	endfacet
	facet normal -1 0 0
		outer loop
			vertex -5 -4.999999999999999 -5.000000000000001
			vertex -5 -5.000000000000001 4.999999999999999
			vertex -5 5.000000000000001 -4.999999999999999
		endloop
	endfacet
	facet normal -1 0 0
		outer loop
			vertex -5 -5.000000000000001 4.999999999999999
			vertex -5 4.999999999999999 5.000000000000001
			vertex -5 5.000000000000001 -4.999999999999999
		endloop
	endfacet
	facet normal 0 1.7763568394002506e-16 -1
		outer loop
			vertex -5 -4.999999999999999 -5.000000000000001
			vertex -5 5.000000000000001 -4.999999999999999
			vertex 5 -4.999999999999999 -5.000000000000001
		endloop
	endfacet
	facet normal 0 1.7763568394002506e-16 -1
		outer loop
			vertex -5 5.000000000000001 -4.999999999999999
			vertex 5 5.000000000000001 -4.999999999999999
			vertex 5 -4.999999999999999 -5.000000000000001
		endloop
	endfacet
	facet normal 0 -1.7763568394002506e-16 1
		outer loop
			vertex -5 4.999999999999999 5.000000000000001
			vertex -5 -5.000000000000001 4.999999999999999
			vertex 5 4.999999999999999 5.000000000000001
		endloop
	endfacet
	facet normal 0 -1.7763568394002506e-16 1
		outer loop
			vertex -5 -5.000000000000001 4.999999999999999
			vertex 5 -5.000000000000001 4.999999999999999
			vertex 5 4.999999999999999 5.000000000000001
		endloop
	endfacet
	facet normal 0 1 1.7763568394002506e-16
		outer loop
			vertex -5 5.000000000000001 -4.999999999999999
			vertex -5 4.999999999999999 5.000000000000001
			vertex 5 5.000000000000001 -4.999999999999999
		endloop
	endfacet
	facet normal 0 1 1.7763568394002506e-16
		outer loop
			vertex -5 4.999999999999999 5.000000000000001
			vertex 5 4.999999999999999 5.000000000000001
			vertex 5 5.000000000000001 -4.999999999999999
		endloop
	endfacet
	facet normal 0 -1 -1.7763568394002506e-16
		outer loop
			vertex 5 -4.999999999999999 -5.000000000000001
			vertex 5 -5.000000000000001 4.999999999999999
			vertex -5 -4.999999999999999 -5.000000000000001
		endloop
	endfacet
	facet normal 0 -1 -1.7763568394002506e-16
		outer loop
			vertex 5 -5.000000000000001 4.999999999999999
			vertex -5 -5.000000000000001 4.999999999999999
			vertex -5 -4.999999999999999 -5.000000000000001
		endloop
	endfacet
endsolid exported
